<svg xmlns="http://www.w3.org/2000/svg" xmlns:xlink="http://www.w3.org/1999/xlink" viewBox="0 0 489.71 565.69"><defs><style>.a{fill:none;}.b{isolation:isolate;}.c{fill:#03a9f4;}.d{opacity:0.4;mix-blend-mode:overlay;}.e{clip-path:url(#a);}.f,.g{fill:#fff;}.g{stroke:#fff;stroke-miterlimit:10;stroke-width:10px;}.h{fill:#ebf0f3;}.i{fill:#e1e6e9;}.j{fill:#64798a;}.k{fill:#3a556a;}.l{fill:#2f4859;}.m{fill:#e56353;}.n{fill:#27a2db;}.o{fill:#2d93ba;}.p{font-size:24.55px;font-family:Menlo-Bold, Menlo;font-weight:700;}.p,.q{fill:#aea79f;}.r{fill:#44c4a1;}.s{clip-path:url(#b);}.t{fill:#ffb4a9;}.u{fill:#fff0d3;}.v{fill:#ff6337;}.w{fill:#ffd9d4;}.x{fill:#ff4128;}</style><clipPath id="a"><circle class="a" cx="282.85" cy="282.85" r="197.95"/></clipPath><clipPath id="b"><rect class="a" x="124.95" y="268.34" width="97.2" height="85.05" transform="translate(-171.64 398.04) rotate(-75)"/></clipPath></defs><title>a0</title><g class="b"><circle class="c" cx="282.85" cy="282.85" r="197.95"/><g class="d"><g class="e"><polygon class="f" points="446.15 0 119.54 565.69 0 119.54 446.15 0"/></g></g><path class="g" d="M481.05,219.49,338.48,181.28l11.53-43a2.38,2.38,0,0,0-1.91-3.3l-47.81-12.82A2.91,2.91,0,0,0,297,124l-11.53,43-142.57-38.2a5,5,0,0,0-6.06,3.5L68.91,385.78a5,5,0,0,0,3.5,6.07l338.17,90.61a5,5,0,0,0,6.07-3.5l67.9-253.41A5,5,0,0,0,481.05,219.49Z"/><path class="h" d="M481.05,219.49,142.88,128.87a5,5,0,0,0-6.06,3.5L68.91,385.78a5,5,0,0,0,3.5,6.07l338.17,90.61a5,5,0,0,0,6.07-3.5l67.9-253.41A5,5,0,0,0,481.05,219.49Z"/><rect class="i" x="166.5" y="155.45" width="211.5" height="333.9" transform="translate(-109.63 501.93) rotate(-75)"/><rect class="f" x="173.18" y="162.25" width="198.45" height="320.85" transform="translate(-109.78 502.29) rotate(-75)"/><path class="i" d="M336.05,195.54l-55.63-14.91a5.4,5.4,0,0,0-2.8,10.44l55.2,14.79a5.48,5.48,0,0,0,6.62-3.82A5.12,5.12,0,0,0,336.05,195.54Z"/><path class="f" d="M336.52,193.8l-55.64-14.9a5.4,5.4,0,1,0-2.79,10.43l55.2,14.79a5.47,5.47,0,0,0,6.61-3.82C340.6,197.69,339.13,194.5,336.52,193.8Z"/><path class="j" d="M348.1,134.94l-47.81-12.81A2.91,2.91,0,0,0,297,124l-15.84,59.12a2.89,2.89,0,0,0,1.91,3.3l47.81,12.82a2.92,2.92,0,0,0,3.31-1.91L350,138.25A2.39,2.39,0,0,0,348.1,134.94Z"/><circle class="k" cx="318.37" cy="150.27" r="15.3"/><path class="l" d="M328.84,144.23a14.72,14.72,0,0,1,.11,6.55,12.1,12.1,0,0,1-14.88,8.59,12.31,12.31,0,0,1-7.33-5.69,11.92,11.92,0,0,0,8.48,8.33,12.09,12.09,0,0,0,14.88-8.59A12.27,12.27,0,0,0,328.84,144.23Z"/><rect class="m" x="279.6" y="116.52" width="19.8" height="281.25" transform="translate(-33.81 470.22) rotate(-75)"/><rect class="n" x="124.95" y="268.34" width="97.2" height="85.05" transform="translate(-171.64 398.04) rotate(-75)"/><rect class="o" x="154.05" y="320.93" width="10.8" height="85.05" transform="translate(-232.89 423.41) rotate(-75)"/><text class="p" transform="matrix(0.97, 0.26, -0.26, 0.97, 259.23, 302.78)">REGISTERED!</text><rect class="q" x="325.68" y="263.5" width="9.9" height="158.4" transform="translate(-85.97 573.37) rotate(-75)"/><rect class="q" x="318.23" y="291.32" width="9.9" height="158.4" transform="matrix(0.26, -0.97, 0.97, 0.26, -118.36, 586.79)"/><rect class="r" x="310.89" y="318.71" width="9.9" height="158.4" transform="translate(-150.25 600) rotate(-75)"/><g class="s"><path class="t" d="M194.64,387.25l-6.94-1.86,6.13-22.88a10.77,10.77,0,0,0-7.61-13.18l-3.46-.93,1.85-6.93,3.47.93a18,18,0,0,1,12.69,22l-6.13,22.88Z"/><path class="t" d="M119.34,367.07l6.13-22.87a18,18,0,0,1,22-12.69l3.46.93-1.86,6.93-3.46-.93a10.79,10.79,0,0,0-13.19,7.61l-6.13,22.88-6.93-1.86Z"/><path class="u" d="M180.38,334.14l-13.86-3.71-5.62,57.93,13.87,3.72,12.38-46.22A9.57,9.57,0,0,0,180.38,334.14Z"/><path class="f" d="M166.52,330.43,157.28,328a9.56,9.56,0,0,0-11.72,6.77l-12.39,46.21,27.73,7.43,12.39-46.21A9.58,9.58,0,0,0,166.52,330.43Z"/><circle class="v" cx="152.53" cy="299.44" r="11.96"/><path class="t" d="M186.54,291l-14,26.19A21.54,21.54,0,0,0,198.92,302Z"/><path class="w" d="M185.05,298.24a60.77,60.77,0,0,0,1.49-7.25L170.1,276.4a21.53,21.53,0,0,0,2.45,40.78C176.37,318.21,182,309.73,185.05,298.24Z"/><path class="x" d="M183.69,275.59l1.95,20.25A43.11,43.11,0,0,0,198.92,302,21.53,21.53,0,0,0,183.69,275.59Z"/><path class="v" d="M183.69,275.59a21.39,21.39,0,0,0-13.59.81,43.09,43.09,0,0,0,15.54,19.44C188,285.37,187.25,276.54,183.69,275.59Z"/></g></g></svg>