<svg xmlns="http://www.w3.org/2000/svg" xmlns:xlink="http://www.w3.org/1999/xlink" viewBox="0 0 521.85 565.69"><defs><style>.a{fill:none;}.b{isolation:isolate;}.c{fill:#03a9f4;}.d{opacity:0.4;mix-blend-mode:overlay;}.e{clip-path:url(#a);}.f,.g{fill:#fff;}.g{stroke:#fff;stroke-miterlimit:10;stroke-width:10px;}.h{fill:#44c4a1;}.i{fill:#3ea69b;}.j{fill:#31978c;}.k{fill:#f4c76e;}.l{fill:#efb73e;}.m{fill:#d39924;}.n{fill:#e56353;}.o{fill:#64798a;}.p{fill:#3a556a;}.q{fill:#2f4859;}.r{fill:#d15241;}.s{fill:#fcd462;}</style><clipPath id="a"><circle class="a" cx="282.85" cy="282.85" r="197.95"/></clipPath></defs><title>a1_3</title><g class="b"><circle class="c" cx="282.85" cy="282.85" r="197.95"/><g class="d"><g class="e"><polygon class="f" points="446.15 0 119.54 565.69 0 119.54 446.15 0"/></g></g><path class="g" d="M230.85,246.85l-119.17.42L70.94,269.39,51,279.92m111.77,40.14-7,6.09c-2.93,2.34-3.51,6.44-1.76,10l18.14,31a7.62,7.62,0,0,0,9.37,3.51l22.23-7.6a115.5,115.5,0,0,0,48.57,28.08L257,413.93a8.1,8.1,0,0,0,7.61,6.43h36.28a8.09,8.09,0,0,0,7.61-6.43l4.68-22.83A115.44,115.44,0,0,0,361.77,363l22.24,7.6a8.31,8.31,0,0,0,9.36-3.51l18.14-31c1.76-3.51,1.17-7.61-1.75-10l-7.45-6.2h52.1V295.6h.11V320H463v.3h46.23c4.09-.59,7.61-4.1,7.61-8.19V295.72h0v-24h0v-17a7.75,7.75,0,0,0-7.61-7.61H463.3v-.29h-8.78V271h-.08V246.74H402.13l7.63-6.61c2.92-2.34,3.51-6.44,1.75-9.95l-18.14-31.6a7.6,7.6,0,0,0-9.36-3.51l-22.24,7.61a115.35,115.35,0,0,0-48.57-28.09l-4.68-22.82a8.08,8.08,0,0,0-7.61-6.44H264.63a8.08,8.08,0,0,0-7.6,6.44l-4.69,22.82a115.41,115.41,0,0,0-48.57,28.09l-22.23-7.61a8.33,8.33,0,0,0-9.37,3.51l-18.14,31c-1.75,3.52-1.17,7.61,1.76,9.95l8.51,7.38M51,279.92a3.46,3.46,0,0,0,0,6.44l19.9,11.11,40.7,22.1,119.21.28m51.92,27.37a63.79,63.79,0,0,1-52.13-27.16H283.1V320H335A63.8,63.8,0,0,1,282.77,347.22Zm0-127.57a63.78,63.78,0,0,1,52.09,27.09H283v.18H230.56A63.79,63.79,0,0,1,282.77,219.65ZM112,295.49h0v-24h0Z"/><rect class="h" x="282.95" y="295.37" width="171.46" height="24.58"/><rect class="i" x="283.26" y="271.02" width="171.46" height="24.58"/><rect class="j" x="282.98" y="246.74" width="171.46" height="24.58"/><rect class="k" x="318.85" y="295.37" width="135.63" height="24.58"/><rect class="l" x="319.09" y="271.02" width="135.63" height="24.58"/><rect class="m" x="318.87" y="246.74" width="135.63" height="24.58"/><rect class="n" x="454.52" y="246.86" width="8.78" height="73.15"/><path class="o" d="M516.85,312.11V295.72H463V320.3h46.23C513.33,319.71,516.85,316.2,516.85,312.11Z"/><rect class="p" x="463.01" y="271.14" width="53.84" height="24.58"/><path class="q" d="M516.85,271.14V254.76a7.75,7.75,0,0,0-7.61-7.61H463v24.58h53.84Z"/><path class="n" d="M392.2,311.52a114.16,114.16,0,0,0,0-56.18l17.56-15.21c2.92-2.34,3.51-6.44,1.75-9.95l-18.14-31.6a7.6,7.6,0,0,0-9.36-3.51l-22.24,7.61a115.35,115.35,0,0,0-48.57-28.09l-4.68-22.82a8.08,8.08,0,0,0-7.61-6.44H264.63a8.1,8.1,0,0,0-7.61,6.44l-4.68,22.82a115.41,115.41,0,0,0-48.57,28.09l-22.23-7.61a8.33,8.33,0,0,0-9.37,3.51l-18.14,31c-1.75,3.52-1.17,7.61,1.76,9.95l17.55,15.22a114.12,114.12,0,0,0,0,56.17l-17.55,15.22c-2.93,2.34-3.51,6.44-1.76,10l18.14,31a7.62,7.62,0,0,0,9.37,3.51l22.23-7.6a115.5,115.5,0,0,0,48.57,28.08L257,413.93a8.1,8.1,0,0,0,7.61,6.43h36.28a8.08,8.08,0,0,0,7.61-6.43l4.68-22.83A115.44,115.44,0,0,0,361.77,363l22.24,7.6a8.31,8.31,0,0,0,9.36-3.51l18.14-31c1.76-3.51,1.17-7.61-1.75-10ZM282.77,357.75a74.32,74.32,0,1,1,74.32-74.32A74.42,74.42,0,0,1,282.77,357.75Z"/><path class="r" d="M282.77,204.43a79,79,0,1,0,79,79A79,79,0,0,0,282.77,204.43Zm0,142.79a63.79,63.79,0,1,1,63.79-63.79A63.94,63.94,0,0,1,282.77,347.22Z"/><rect class="h" x="111.64" y="295.49" width="171.46" height="24.58"/><rect class="i" x="111.95" y="271.2" width="171.46" height="24.58"/><rect class="j" x="111.68" y="246.92" width="171.46" height="24.58"/><rect class="k" x="111.64" y="295.49" width="216.81" height="24.58"/><rect class="l" x="112.04" y="271.2" width="216.81" height="24.58"/><rect class="m" x="111.69" y="246.92" width="216.81" height="24.58"/><path class="s" d="M111.9,247.15l-41,22.24a19.77,19.77,0,0,1,0,28.08l41,22.24Z"/><path class="o" d="M76.79,283.43a20.42,20.42,0,0,0-5.85-14L51,279.92a3.46,3.46,0,0,0,0,6.44l19.9,10.53C74.45,294,76.79,288.7,76.79,283.43Z"/></g></svg>