<svg xmlns="http://www.w3.org/2000/svg" xmlns:xlink="http://www.w3.org/1999/xlink" viewBox="0 0 485.85 565.69"><defs><style>.a{fill:none;}.b{isolation:isolate;}.c{fill:#03a9f4;}.d{opacity:0.4;mix-blend-mode:overlay;}.e{clip-path:url(#a);}.f,.g{fill:#fff;}.g{stroke:#fff;stroke-miterlimit:10;stroke-width:10px;}.h{fill:#64798a;}.i{fill:#ebf0f3;}.j{fill:#d5d6db;}.k{fill:#2f4859;}.l{fill:#fcd462;}.m{fill:#44c4a1;}.n{fill:#e56353;}.o{fill:#3a556a;}.p{clip-path:url(#b);}.q{fill:#d15241;}.r{fill:#ce412d;}</style><clipPath id="a"><circle class="a" cx="282.85" cy="282.85" r="197.95"/></clipPath><clipPath id="b"><rect class="a" x="144.92" y="227.64" width="277.54" height="147.23"/></clipPath></defs><title>Asset 9</title><g class="b"><circle class="c" cx="282.85" cy="282.85" r="197.95"/><g class="d"><g class="e"><polygon class="f" points="446.15 0 119.54 565.69 0 119.54 446.15 0"/></g></g><path class="g" d="M480.85,396.13H462V145.66c0-5.45-4-9.41-8.91-9.41H113.06a9.1,9.1,0,0,0-9.4,9.41V396.13H84.85v25.74h1.7l26,7.57H453.13l26-7.57h1.71Z"/><path class="h" d="M462,145.66V396.13H103.66V145.66a9.1,9.1,0,0,1,9.4-9.41H453.13C458.08,136.25,462,140.21,462,145.66Z"/><rect class="i" x="84.85" y="396.13" width="396" height="25.74"/><polygon class="j" points="480.35 421.52 85.34 421.52 112.57 429.44 453.13 429.44 480.35 421.52"/><rect class="j" x="255.13" y="406.03" width="55.44" height="5.94"/><path class="k" d="M432.83,158h-300a7.29,7.29,0,0,0-7.42,7.43v30.19H440.75V165.46A7.73,7.73,0,0,0,432.83,158Z"/><circle class="l" cx="359.57" cy="176.84" r="8.42"/><circle class="m" cx="390.26" cy="176.84" r="8.42"/><circle class="n" cx="421.45" cy="176.84" r="8.42"/><path class="i" d="M194.24,190.21H247.7l-3-9.41a3.72,3.72,0,0,0-3.46-2.47H189.79a.48.48,0,0,0,.49.49Z"/><path class="o" d="M440.75,196.15h-248a3.73,3.73,0,0,1-3.47-2.48l-4.45-12.37a3.73,3.73,0,0,0-3.47-2.48h-39.1a3.73,3.73,0,0,0-3.47,2.48l-4.45,12.37a3.73,3.73,0,0,1-3.47,2.48h-5.94v26.23H440.26V196.15Z"/><path class="f" d="M182.36,212.48H148.21a3.47,3.47,0,1,1,0-6.93h34.15a3.47,3.47,0,1,1,0,6.93Z"/><path class="f" d="M241.27,212.48H207.11a3.47,3.47,0,0,1,0-6.93h34.16a3.47,3.47,0,0,1,0,6.93Z"/><path class="f" d="M300.17,212.48H265.52a3.47,3.47,0,0,1,0-6.93h34.65a3.47,3.47,0,1,1,0,6.93Z"/><path class="f" d="M359.08,212.48H324.92a3.47,3.47,0,0,1,0-6.93h34.16a3.38,3.38,0,0,1,3.46,3.47A3.71,3.71,0,0,1,359.08,212.48Z"/><path class="f" d="M417.49,212.48H383.33a3.47,3.47,0,0,1,0-6.93h34.16a3.47,3.47,0,0,1,0,6.93Z"/><rect class="f" x="124.94" y="222.38" width="315.32" height="152.46"/><g class="p"><path class="n" d="M190.78,339.56a91.84,91.84,0,0,0-3,23.76,103.09,103.09,0,0,0,1,12.37h23.76a95.53,95.53,0,0,1-1-12.37A71.29,71.29,0,0,1,282.85,292c39.1,0,71.28,32.17,71.28,71.28a105.19,105.19,0,0,1-1,12.37H376.9a89.21,89.21,0,0,0-2-36.13l14.85-12.87a6.74,6.74,0,0,0,1.48-8.42L375.91,292a6.43,6.43,0,0,0-7.92-3l-18.32,6.43a99,99,0,0,0-40.59-23.76l-4-19.3a6.85,6.85,0,0,0-6.43-5.45h-30.2a6.36,6.36,0,0,0-6.43,5.45l-4.95,19.3c-15.35,4.46-29.7,12.38-40.59,23.76l-18.32-6.43a6.43,6.43,0,0,0-7.92,3l-15.35,26.23a6.86,6.86,0,0,0,1.49,8.42Z"/><path class="q" d="M225.43,375.2a50,50,0,0,1-1.49-12.38,58.91,58.91,0,1,1,117.81,0,53,53,0,0,1-1.48,12.38h12.87a97.65,97.65,0,0,0,1-12.38,71.3,71.3,0,0,0-71.28-71.28c-39.11,0-71.28,32.17-71.28,71.28a103.42,103.42,0,0,0,1,12.38Z"/><path class="r" d="M314.53,375.2A34.66,34.66,0,0,0,317,362.82a34.16,34.16,0,1,0-65.83,12.38Z"/></g></g></svg>