<svg xmlns="http://www.w3.org/2000/svg" xmlns:xlink="http://www.w3.org/1999/xlink" viewBox="0 0 521.85 565.69"><defs><style>.a,.c,.l,.o{fill:none;}.b{fill:#ced9ea;}.c{clip-path:url(#a);}.d{isolation:isolate;}.e{fill:#79af33;}.f{opacity:0.4;}.ab,.f{mix-blend-mode:overlay;}.g{clip-path:url(#b);}.ab,.h,.i,.k,.t,.w{fill:#fff;}.i,.t,.v{stroke:#fff;}.i,.k,.l,.r,.t,.v{stroke-miterlimit:10;}.i{stroke-width:10px;}.j{fill:#ecc311;}.k,.l{stroke:#79af33;}.m,.u{fill:#df382c;}.n,.r{fill:#434c6d;}.o,.r{stroke:#434c6d;}.o,.z{stroke-linecap:round;stroke-linejoin:round;}.o{stroke-width:3px;}.p{fill:#869bb2;}.q{clip-path:url(#c);}.r{stroke-width:2.81px;}.s{clip-path:url(#d);}.t{stroke-width:7px;}.u{fill-rule:evenodd;}.v{stroke-width:2px;}.w{font-size:31.43px;font-family:Windows-Command-Prompt, Windows Command Prompt;letter-spacing:0.03em;}.x{fill:#44c4a1;}.y{fill:#efb73e;}.aa,.z{fill:#684035;}.z{stroke:#684035;stroke-width:4px;}.aa{opacity:0.99;}.ab{opacity:0.5;}</style><clipPath id="a"><path class="b" d="M440.05,142.53v179H116.77v-179H440.05"/></clipPath><clipPath id="b"><circle class="a" cx="282.85" cy="282.85" r="197.95"/></clipPath><clipPath id="c"><rect class="a" x="236.25" y="342.92" width="84.33" height="39.35"/></clipPath><clipPath id="d"><path class="c" d="M440.05,142.53v179H116.77v-179H440.05"/></clipPath></defs><title>Asset 10</title><g class="d"><circle class="e" cx="282.85" cy="282.85" r="197.95"/><g class="f"><g class="g"><polygon class="h" points="446.15 0 119.54 565.69 0 119.54 446.15 0"/></g></g><path class="i" d="M481,174.18l-15.12-30.25a1.49,1.49,0,0,0-1.31-.83,1.52,1.52,0,0,0-1.34.77L452.49,163V134.72a4.64,4.64,0,0,0-4.63-4.63H109a4.64,4.64,0,0,0-4.63,4.63V325.93H73.78a4.1,4.1,0,0,0-4.09,3.87l-.14,2.5a4.09,4.09,0,0,1-4.09,3.88H52.94a4.09,4.09,0,0,0-4.09,4.09v2.05a4.09,4.09,0,0,0,4.09,4.1h3L59.7,376.7a2,2,0,0,0-1.25.65,2,2,0,0,0-.49,1.57l4.27,34.16a2,2,0,0,0,2,1.75h.25l2.1,16.78a4.56,4.56,0,0,0,4.52,4h37.5a4.56,4.56,0,0,0,3.3-1.44,4.88,4.88,0,0,0,.56-.73,5.39,5.39,0,0,0,.34-.68c.06-.15.12-.3.17-.47a5,5,0,0,0,.15-.67l1.74-13.95h.6a4.83,4.83,0,0,0,4.8-4.23l4.27-34.16a4.8,4.8,0,0,0-4.2-5.37l.87-6.94H240.4l-14.87,50.37h-8.05a9.35,9.35,0,0,0,0,18.7H339.34a9.35,9.35,0,1,0,0-18.7h-8L316.42,367H447.86a4.63,4.63,0,0,0,4.63-4.63V278.72h64.36V174.18ZM245.61,367h0l-16.35,55.37ZM216.4,422.47a4.37,4.37,0,0,0-2.52,1.78A4.37,4.37,0,0,1,216.4,422.47Zm126.54,1.78a4.37,4.37,0,0,0-2.52-1.78A4.37,4.37,0,0,1,342.94,424.25Zm-15.38-1.92L311.21,367h0ZM452.49,174.18v-5l12-21.35,13.18,26.38Z"/><rect class="j" x="412.3" y="196.58" width="104.54" height="82.14"/><rect class="e" x="412.3" y="174.18" width="104.54" height="22.4"/><rect class="k" x="419.98" y="204.05" width="89.4" height="67"/><line class="l" x1="442.17" y1="203.84" x2="442.17" y2="271.25"/><line class="l" x1="464.57" y1="203.84" x2="464.57" y2="271.25"/><line class="l" x1="486.98" y1="203.84" x2="486.98" y2="271.25"/><line class="l" x1="419.77" y1="226.24" x2="509.38" y2="226.24"/><line class="l" x1="419.77" y1="248.64" x2="509.38" y2="248.64"/><path class="m" d="M480,237.34l6.09-6.09a3.05,3.05,0,0,0-4.32-4.32L475.67,233l-6.09-6.09a3.05,3.05,0,1,0-4.32,4.32l6.09,6.09-6.09,6.09a3.05,3.05,0,0,0,4.32,4.32l6.09-6.09,6.09,6.09a3.05,3.05,0,0,0,4.32-4.32Z"/><circle class="n" cx="483.92" cy="184.49" r="3.63"/><circle class="n" cx="442.81" cy="184.49" r="3.63"/><polyline class="o" points="442.81 183.28 464.57 144.6 483.92 183.28"/><polygon class="p" points="329.01 427.24 227.81 427.24 249.4 354.16 307.43 354.16 329.01 427.24"/><g class="q"><polygon class="r" points="329.01 427.24 227.81 427.24 249.4 354.16 307.43 354.16 329.01 427.24"/></g><rect class="b" x="213.13" y="422.33" width="130.56" height="8.7" rx="1.8" ry="1.8"/><path class="n" d="M307.43,354.16l20.13,68.17h11.78a4.35,4.35,0,0,1,0,8.7H217.48a4.35,4.35,0,0,1,0-8.7h11.78l20.13-68.17h58m3.73-5h-65.5l-1.06,3.58-19.07,64.59h-8.05a9.35,9.35,0,0,0,0,18.7H339.34a9.35,9.35,0,1,0,0-18.7h-8l-19.07-64.59-1.06-3.58Z"/><rect class="b" x="106.84" y="132.59" width="343.15" height="231.87" rx="2.13" ry="2.13"/><path class="n" d="M447.49,135.09V362H109.34V135.09H447.49m.37-5H109a4.63,4.63,0,0,0-4.62,4.63V362.33A4.62,4.62,0,0,0,109,367h338.9a4.63,4.63,0,0,0,4.63-4.63V134.72a4.64,4.64,0,0,0-4.63-4.63Z"/><path class="h" d="M106.91,331.41V134.72a2.05,2.05,0,0,1,2-2.05h338.9a2.05,2.05,0,0,1,2.05,2.05V331.41Z"/><path class="n" d="M447.34,135.24v193.6H109.48V135.24H447.34m.52-5.15H109a4.64,4.64,0,0,0-4.62,4.63V334H452.49V134.72a4.65,4.65,0,0,0-4.63-4.63Z"/><circle class="n" cx="278.41" cy="348.9" r="7.25"/><path class="b" d="M440.05,142.53v179H116.77v-179H440.05"/><g class="s"><rect class="p" x="162.36" y="299.33" width="232.09" height="29.01" rx="3.6" ry="3.6"/><circle class="n" cx="343.69" cy="300.54" r="12.09"/><circle class="n" cx="300.17" cy="300.54" r="12.09"/><circle class="n" cx="256.65" cy="300.54" r="12.09"/><circle class="n" cx="213.13" cy="300.54" r="12.09"/><circle class="t" cx="343.69" cy="292.08" r="21.76"/><path class="u" d="M343.69,270.32c-12,0-21.76,10-21.76,22.31a22.26,22.26,0,0,0,14.88,21.17c1.09.21,1.49-.48,1.49-1.07s0-1.94,0-3.8c-6.06,1.35-7.33-3-7.33-3a5.83,5.83,0,0,0-2.42-3.26c-2-1.39.15-1.36.15-1.36a4.59,4.59,0,0,1,3.33,2.3c1.94,3.41,5.1,2.43,6.34,1.86a4.79,4.79,0,0,1,1.38-3c-4.84-.56-9.91-2.47-9.91-11a8.71,8.71,0,0,1,2.24-6,8.15,8.15,0,0,1,.21-5.91s1.83-.59,6,2.29a20.18,20.18,0,0,1,10.9,0c4.15-2.88,6-2.29,6-2.29a8.17,8.17,0,0,1,.22,5.91,8.71,8.71,0,0,1,2.24,6c0,8.57-5.09,10.45-9.94,11a5.39,5.39,0,0,1,1.48,4.13c0,3,0,5.39,0,6.12s.4,1.29,1.5,1.07a22.28,22.28,0,0,0,14.87-21.17C365.45,280.31,355.7,270.32,343.69,270.32Z"/><path class="v" d="M382,312.05,375.91,306l4.43-2.56a.79.79,0,0,0,.39-.74.77.77,0,0,0-.49-.67l-18.72-7.46a.78.78,0,0,0-1,1L368,314.28a.78.78,0,0,0,1.41.11l2.55-4.43L378,316a.77.77,0,0,0,1.1,0l2.87-2.87A.78.78,0,0,0,382,312.05Z"/><path class="n" d="M378.41,199h7a2.32,2.32,0,0,1,2.32,2.32v1.16A2.32,2.32,0,0,0,390,204.8h12.77a2.32,2.32,0,0,1,2.32,2.32v18.57a2.32,2.32,0,0,1-2.32,2.32H372.6a2.32,2.32,0,0,1-2.32-2.32V207.12a2.32,2.32,0,0,1,2.32-2.32h1.16a2.32,2.32,0,0,0,2.33-2.32v-1.16A2.32,2.32,0,0,1,378.41,199Z"/><path class="n" d="M378.41,155.48h7a2.32,2.32,0,0,1,2.32,2.32V159a2.32,2.32,0,0,0,2.32,2.32h12.77a2.32,2.32,0,0,1,2.32,2.32v18.57a2.32,2.32,0,0,1-2.32,2.32H372.6a2.32,2.32,0,0,1-2.32-2.32V163.6a2.32,2.32,0,0,1,2.32-2.32h1.16a2.32,2.32,0,0,0,2.33-2.32V157.8A2.32,2.32,0,0,1,378.41,155.48Z"/><rect class="h" x="148.54" y="151.85" width="125.72" height="89.8"/><rect class="h" x="166.5" y="169.81" width="125.72" height="89.8"/><rect class="h" x="184.46" y="187.77" width="125.72" height="89.8"/><rect class="h" x="191.37" y="192.96" width="113.63" height="16.92"/><text class="w" transform="translate(207.49 243.73)">&gt;_</text><rect class="x" x="148.54" y="151.85" width="125.72" height="89.8"/><rect class="h" x="166.5" y="169.81" width="125.72" height="89.8"/><rect class="n" x="184.46" y="187.77" width="125.72" height="89.8"/><rect class="x" x="191.37" y="192.96" width="113.63" height="16.92"/><text class="w" transform="translate(207.49 243.73)">&gt;_</text></g><path class="y" d="M55.68,344.52H124L113.1,431.61a4.56,4.56,0,0,1-4.52,4H71.08a4.56,4.56,0,0,1-4.52-4Z"/><polygon class="z" points="115.44 412.83 119.71 378.68 59.95 378.68 64.21 412.83 115.44 412.83"/><circle class="m" cx="89.83" cy="395.08" r="13.06"/><path class="aa" d="M52.94,346.42h73.77a4.09,4.09,0,0,0,4.1-4.1v-2.05a4.09,4.09,0,0,0-4.1-4.09H114.2a4.09,4.09,0,0,1-4.09-3.88l-.14-2.5a4.1,4.1,0,0,0-4.1-3.87H73.78a4.1,4.1,0,0,0-4.09,3.87l-.14,2.5a4.09,4.09,0,0,1-4.09,3.88H52.94a4.09,4.09,0,0,0-4.09,4.09v2.05A4.09,4.09,0,0,0,52.94,346.42Z"/><path class="ab" d="M126.71,336.18H114.2a4.09,4.09,0,0,1-4.09-3.88l-.14-2.5a4.1,4.1,0,0,0-4.1-3.87h-16V435.6h18.75a4.56,4.56,0,0,0,4.52-4l1.74-13.95h.6a4.83,4.83,0,0,0,4.8-4.23l4.27-34.16a4.8,4.8,0,0,0-4.2-5.37l3.43-27.48h3a4.09,4.09,0,0,0,4.1-4.1v-2.05A4.09,4.09,0,0,0,126.71,336.18Z"/></g></svg>