<svg xmlns="http://www.w3.org/2000/svg" viewBox="0 0 395.95 395.95"><defs><style>.a{fill:#03a9f4;}.b,.c{fill:#fff;}.b{opacity:0.4;}.c{stroke:#fff;stroke-miterlimit:10;stroke-width:10px;}.d{fill:#fcd462;}.e{fill:#44c4a1;}.f{fill:#3ea69b;}.g{fill:#e56353;}.h{fill:#f6c358;}.i{fill:#d15241;}</style></defs><title>a6</title><circle class="a" cx="198" cy="198" r="197.95"/><path class="b" d="M146.77,6.79C41.17,35.09-21.5,143.63,6.79,249.23A197.36,197.36,0,0,0,99,369.43L297,26.57A197.37,197.37,0,0,0,146.77,6.79Z"/><path class="c" d="M298.35,160.88a98.14,98.14,0,0,0,4-28.35,105.53,105.53,0,0,0-211,0,106.74,106.74,0,0,0,4.05,29.25l.13,0A107.89,107.89,0,0,0,171,234.67c-36.45-9-65.25-37.34-75.6-72.89C50.85,173.48,18,214.43,18,263a105.32,105.32,0,0,0,179.76,74.49l-.21.22a105.78,105.78,0,0,0,74.7,31C330.75,368.33,378,321.52,378,263,378,214,344.25,172.57,298.35,160.88Z"/><path class="d" d="M198,188.78a105.79,105.79,0,0,1,74.7-31.05,117.71,117.71,0,0,1,25.65,3.15,98.14,98.14,0,0,0,4-28.35,105.53,105.53,0,0,0-211,0,106.74,106.74,0,0,0,4.05,29.25,112.82,112.82,0,0,1,27.9-3.6A101.78,101.78,0,0,1,198,188.78Z"/><path class="e" d="M171,234.68c-36.45-9-65.25-37.35-75.6-72.9C50.85,173.48,18,214.43,18,263a105.32,105.32,0,0,0,180,74.26A105.79,105.79,0,0,1,167,262.58C167,253.12,168.75,243.68,171,234.68Z"/><path class="f" d="M171,234.68a105.48,105.48,0,0,1,27-45.9,105.79,105.79,0,0,0-74.7-31.05,115.67,115.67,0,0,0-27.9,3.6A107.91,107.91,0,0,0,171,234.68Z"/><path class="g" d="M298.35,160.88a104.85,104.85,0,0,1-73.8,72.89,106,106,0,0,1-27,104,105.78,105.78,0,0,0,74.7,31C330.75,368.33,378,321.52,378,263,378,214,344.25,172.57,298.35,160.88Z"/><path class="h" d="M198,188.78a103.16,103.16,0,0,1,26.55,45.45c35.55-9.9,63.9-37.35,73.8-72.9a95.42,95.42,0,0,0-25.65-3.15A101.78,101.78,0,0,0,198,188.78Z"/><path class="i" d="M224.55,234.23A107.61,107.61,0,0,0,198,188.78a105.48,105.48,0,0,0-27,45.9A98.07,98.07,0,0,0,167,263,104.75,104.75,0,0,0,198,337.73,105.83,105.83,0,0,0,229.05,263,101.36,101.36,0,0,0,224.55,234.23Z"/></svg>