<svg xmlns="http://www.w3.org/2000/svg" viewBox="0 0 395.95 395.95"><defs><style>.a{fill:#03a9f4;}.b,.c,.d,.m{fill:#fff;}.b{opacity:0.4;}.c{stroke:#fff;}.c,.f,.g,.h,.l,.m{stroke-miterlimit:10;}.c,.f,.g,.h{stroke-width:10px;}.e{fill:#2f4859;}.f,.g,.h{fill:none;stroke:#aea79f;}.g{stroke-dasharray:27.59 18.39;}.h{stroke-dasharray:31.73 21.15;}.i{font-size:153.85px;fill:#777;font-family:Rockwell, Rockwell;}.j,.l{fill:#64798a;}.k{fill:#3a556a;}.l,.m{stroke:#64798a;stroke-width:4px;}.n{fill:#ebf0f3;}.o{fill:#e1e6e9;}.p{fill:#d5d6db;}.q{fill:#fcd462;}.r{fill:#f6c358;}.s{fill:#dc8744;}.t{fill:#44c4a1;}.u{fill:#3ea69b;}.v{fill:#31978c;}.w{fill:#e56353;}.x{fill:#d15241;}.y{fill:#ce412d;}.z{fill:#27a2db;}.aa{fill:#2d93ba;}.ab{fill:#1c75a1;}</style></defs><title>a7</title><circle class="a" cx="198" cy="198" r="197.95"/><path class="b" d="M146.77,6.79C41.17,35.09-21.5,143.63,6.79,249.23A197.36,197.36,0,0,0,99,369.43L297,26.57A197.37,197.37,0,0,0,146.77,6.79Z"/><rect class="c" x="18" y="59.54" width="360" height="276.92" rx="27" ry="27"/><rect class="d" x="18" y="59.54" width="360" height="276.92" rx="27" ry="27"/><path class="e" d="M38.77,59.54H357.23A20.77,20.77,0,0,1,378,80.31v0a0,0,0,0,1,0,0H18a0,0,0,0,1,0,0v0A20.77,20.77,0,0,1,38.77,59.54Z"/><polyline class="f" points="356.46 299.92 356.46 314.92 341.46 314.92"/><line class="g" x1="323.07" y1="314.92" x2="148.35" y2="314.92"/><polyline class="f" points="139.15 314.92 124.15 314.92 124.15 299.92"/><line class="h" x1="124.15" y1="278.77" x2="124.15" y2="183.58"/><polyline class="f" points="124.15 173 124.15 158 139.15 158"/><line class="g" x1="157.55" y1="158" x2="332.27" y2="158"/><polyline class="f" points="341.46 158 356.46 158 356.46 173"/><line class="h" x1="356.46" y1="194.15" x2="356.46" y2="289.35"/><text class="i" transform="translate(145.61 286.46)">Aa</text><rect class="j" x="42.85" y="112.89" width="52.47" height="166.15"/><rect class="e" x="42.85" y="112.89" width="52.47" height="12.83"/><polygon class="k" points="94.74 147.29 94.74 143.21 70.84 143.21 70.84 125.72 66.76 125.72 66.76 143.21 42.85 143.21 42.85 147.29 66.76 147.29 66.76 165.36 42.85 165.36 42.85 169.44 66.76 169.44 66.76 188.1 42.85 188.1 42.85 192.18 66.76 192.18 66.76 210.25 42.85 210.25 42.85 214.91 66.76 214.91 66.76 232.99 42.85 232.99 42.85 237.07 66.76 237.07 66.76 255.14 42.85 255.14 42.85 259.81 66.76 259.81 66.76 279.04 70.84 279.04 70.84 259.81 94.74 259.81 94.74 255.14 70.84 255.14 70.84 237.07 94.74 237.07 94.74 232.99 70.84 232.99 70.84 214.91 94.74 214.91 94.74 210.25 70.84 210.25 70.84 192.18 94.74 192.18 94.74 188.1 70.84 188.1 70.84 169.44 94.74 169.44 94.74 165.36 70.84 165.36 70.84 147.29 94.74 147.29"/><path class="l" d="M202.36,94.5A4.09,4.09,0,0,0,198,90.17h-116a4.09,4.09,0,0,0-4.33,4.33v13.85H202.36V94.5Z"/><path class="m" d="M77.75,108.35v63.23c0,2.07,1.73,3.44,4.33,3.44H198c2.59,0,4.32-1.37,4.32-3.44V108.35Z"/><rect class="n" x="84.67" y="117" width="11.25" height="11.25"/><rect class="o" x="104.58" y="117" width="11.25" height="11.25"/><rect class="p" x="124.48" y="117" width="11.25" height="11.25"/><rect class="q" x="144.38" y="117" width="11.25" height="11.25"/><rect class="r" x="164.29" y="117" width="11.25" height="11.25"/><rect class="s" x="184.19" y="117" width="11.25" height="11.25"/><rect class="t" x="84.67" y="136.04" width="11.25" height="11.25"/><rect class="u" x="104.58" y="136.04" width="11.25" height="11.25"/><rect class="v" x="124.48" y="136.04" width="11.25" height="11.25"/><rect class="w" x="144.38" y="136.04" width="11.25" height="11.25"/><rect class="x" x="164.29" y="136.04" width="11.25" height="11.25"/><rect class="y" x="184.19" y="136.04" width="11.25" height="11.25"/><rect class="z" x="84.67" y="155.08" width="11.25" height="11.25"/><rect class="aa" x="104.58" y="155.08" width="11.25" height="11.25"/><rect class="ab" x="124.48" y="155.08" width="11.25" height="11.25"/><rect class="j" x="144.38" y="155.08" width="11.25" height="11.25"/><rect class="k" x="164.29" y="155.08" width="11.25" height="11.25"/><rect class="e" x="184.19" y="155.08" width="11.25" height="11.25"/></svg>