<svg xmlns="http://www.w3.org/2000/svg" viewBox="0 0 395.95 395.95"><defs><style>.a{fill:#03a9f4;}.b,.c,.e{fill:#fff;}.b{opacity:0.4;}.c{stroke:#fff;stroke-miterlimit:10;stroke-width:10px;}.d{fill:#64798a;}.f{fill:#ebf0f3;}.g{fill:#df382c;}.h{fill:#d5d6db;}.i{fill:#efb73e;}.j{fill:#27a2db;}.k{fill:#fcd462;}.l{fill:#e95420;}</style></defs><title>a8</title><circle class="a" cx="198" cy="198" r="197.95"/><path class="b" d="M146.77,6.79C41.17,35.09-21.5,143.63,6.79,249.23A197.36,197.36,0,0,0,99,369.43L297,26.57A197.37,197.37,0,0,0,146.77,6.79Z"/><path class="c" d="M91.26,75.3l-5-14.38a3.91,3.91,0,0,0-4-2.69h-44a4.55,4.55,0,0,0-4,2.69L29.24,75.3a3.94,3.94,0,0,1-4,2.7H18.45v30.11H18V355.75h.45A8.53,8.53,0,0,0,27,364.29H369a8.53,8.53,0,0,0,8.54-8.54V108.11H378V78H95.3A4.55,4.55,0,0,1,91.26,75.3Z"/><path class="d" d="M378,78H95.3a4.55,4.55,0,0,1-4-2.7l-5-14.38a3.92,3.92,0,0,0-4-2.7h-44a4.55,4.55,0,0,0-4,2.7L29.24,75.3a3.94,3.94,0,0,1-4,2.7H18.45v30.11H378V78Z"/><path class="e" d="M18.45,355.75A8.53,8.53,0,0,0,27,364.29H369a8.53,8.53,0,0,0,8.54-8.54V108.11H18V355.75Z"/><path class="e" d="M83.62,96.88H44.52a4,4,0,1,1,0-8.09h39.1a4,4,0,0,1,0,8.09Z"/><path class="e" d="M150.58,96.88h-39.1a4,4,0,0,1,0-8.09h39.1a4,4,0,1,1,0,8.09Z"/><path class="e" d="M218,96.88H178.9a4,4,0,1,1,0-8.09H218a4,4,0,0,1,4,4C221.6,95.08,219.8,96.88,218,96.88Z"/><path class="e" d="M285,96.88h-39.1a4,4,0,1,1,0-8.09H285a4,4,0,0,1,4,4C288.56,95.08,287.21,96.88,285,96.88Z"/><path class="e" d="M351.93,96.88h-39.1a4,4,0,0,1,0-8.09h39.1a4,4,0,1,1,0,8.09Z"/><path class="f" d="M110.13,122.05H39.57a8.05,8.05,0,0,0-8.09,8.08v213a8.06,8.06,0,0,0,8.09,8.09h70.56a8.06,8.06,0,0,0,8.09-8.09V129.69A8,8,0,0,0,110.13,122.05Z"/><circle class="g" cx="73.73" cy="162.94" r="26.07"/><rect class="h" x="43.62" y="214.18" width="62.47" height="6.74"/><rect class="h" x="43.62" y="237.1" width="62.47" height="6.74"/><rect class="h" x="43.62" y="260.47" width="62.47" height="6.74"/><rect class="h" x="43.62" y="283.39" width="62.47" height="6.74"/><rect class="h" x="43.62" y="306.31" width="62.47" height="6.74"/><rect class="h" x="43.62" y="329.24" width="62.47" height="6.74"/><rect class="i" x="149.24" y="128.34" width="57.53" height="57.53"/><rect class="j" x="149.24" y="202.49" width="57.53" height="57.53"/><circle class="d" cx="318.67" cy="318.9" r="35.51"/><circle class="f" cx="318.67" cy="300.92" r="13.03"/><path class="f" d="M318.67,348.11a28.48,28.48,0,0,0,24.72-13.93,27,27,0,0,0-49.43,0A28.48,28.48,0,0,0,318.67,348.11Z"/><circle class="k" cx="184.29" cy="318.9" r="35.51"/><circle class="l" cx="184.29" cy="300.92" r="13.03"/><path class="l" d="M184.29,348.11A28.48,28.48,0,0,0,209,334.18a27,27,0,0,0-49.44,0A29.05,29.05,0,0,0,184.29,348.11Z"/><rect class="h" x="226.54" y="133.28" width="131.24" height="6.74"/><rect class="h" x="226.54" y="153.96" width="131.24" height="6.74"/><rect class="h" x="226.54" y="174.18" width="92.13" height="6.74"/><rect class="h" x="226.54" y="207.89" width="131.24" height="6.74"/><rect class="h" x="226.54" y="228.11" width="131.24" height="6.74"/><rect class="h" x="226.54" y="248.79" width="92.13" height="6.74"/></svg>