<svg xmlns="http://www.w3.org/2000/svg" xmlns:xlink="http://www.w3.org/1999/xlink" viewBox="0 0 600 600"><defs><style>.a,.d,.i{fill:none;}.b{isolation:isolate;}.c,.j{fill:#fed859;}.c,.i,.j{stroke:#999;}.c,.d,.i{stroke-linecap:round;stroke-width:10px;}.c,.d,.i,.j{stroke-miterlimit:10;}.d{stroke:#eceeef;}.e{fill:#eceeef;}.f{fill:#999;}.g{clip-path:url(#a);}.h{fill:#fff;opacity:0.5;mix-blend-mode:overlay;}.j{stroke-width:5px;}</style><clipPath id="a"><path class="a" d="M410,293.5A110,110,0,1,0,260,396v97.5a12,12,0,0,0,12,12h56a12,12,0,0,0,12-12V396A110,110,0,0,0,410,293.5Z"/></clipPath></defs><title>Learn</title><g class="b"><path class="c" d="M410,293.5A110,110,0,1,0,260,396v97.5a12,12,0,0,0,12,12h56a12,12,0,0,0,12-12V396A110,110,0,0,0,410,293.5Z"/><path class="d" d="M285.25,446.25V310.75a25,25,0,1,0-25,25h79.5a25,25,0,1,0-25-25v135.5"/><rect class="e" x="260" y="445.5" width="80" height="60" rx="12" ry="12"/><rect class="f" x="250" y="480.5" width="100" height="10" rx="5" ry="5"/><rect class="f" x="250" y="460.5" width="100" height="10" rx="5" ry="5"/><rect class="f" x="250" y="440.5" width="100" height="10" rx="5" ry="5"/><g class="g"><rect class="h" x="299" y="165.5" width="111" height="340"/></g><path class="i" d="M410,293.5A110,110,0,1,0,260,396v97.5a12,12,0,0,0,12,12h56a12,12,0,0,0,12-12V396A110,110,0,0,0,410,293.5Z"/><path class="j" d="M226.24,171.74a5,5,0,0,1-4.33-2.5l-26.24-45.45a5,5,0,1,1,8.66-5l26.24,45.45a5,5,0,0,1-1.83,6.83A4.94,4.94,0,0,1,226.24,171.74Z"/><path class="j" d="M373.75,171.74a4.93,4.93,0,0,1-2.49-.67,5,5,0,0,1-1.83-6.83l26.24-45.45a5,5,0,0,1,8.66,5l-26.24,45.45A5,5,0,0,1,373.75,171.74Z"/><path class="j" d="M172.24,225.74a5,5,0,0,1-2.5-.67l-45.45-26.24a5,5,0,1,1,5-8.66l45.45,26.24a5,5,0,0,1-2.5,9.33Z"/><path class="j" d="M473.2,399.5a5,5,0,0,1-2.49-.67l-45.45-26.24a5,5,0,0,1,5-8.66l45.45,26.24a5,5,0,0,1-2.51,9.33Z"/><path class="j" d="M300,152a5,5,0,0,1-5-5V94.5a5,5,0,0,1,10,0V147A5,5,0,0,1,300,152Z"/><path class="j" d="M427.76,225.74a5,5,0,0,1-2.5-9.33l45.45-26.24a5,5,0,1,1,5,8.66l-45.45,26.24A5,5,0,0,1,427.76,225.74Z"/><path class="j" d="M500,299.5H447.5a5,5,0,0,1,0-10H500a5,5,0,0,1,0,10Z"/><path class="j" d="M126.8,399.5a5,5,0,0,1-2.51-9.33l45.45-26.24a5,5,0,1,1,5,8.66l-45.45,26.24A5,5,0,0,1,126.8,399.5Z"/><path class="j" d="M152.5,299.5H100a5,5,0,0,1,0-10h52.5a5,5,0,0,1,0,10Z"/></g></svg>