<svg xmlns="http://www.w3.org/2000/svg" xmlns:xlink="http://www.w3.org/1999/xlink" viewBox="0 0 521.51 565.69"><defs><style>.a,.ad,.af,.ag,.i,.j,.k,.s,.x{fill:none;}.b{isolation:isolate;}.c,.v{fill:#79af33;}.d{opacity:0.4;mix-blend-mode:overlay;}.e{clip-path:url(#a);}.f,.g,.h{fill:#fff;}.ag,.ah,.g{opacity:0.5;}.ae,.ag,.h,.i,.j,.k{stroke:#fff;}.ae,.af,.h,.i,.k,.n,.s,.t,.u,.v,.x,.y{stroke-miterlimit:10;}.h{stroke-width:10px;}.i,.j{stroke-width:12px;}.ad,.ag,.j,.x{stroke-linecap:round;}.ad,.ag,.j{stroke-linejoin:round;}.k{stroke-width:14px;}.l{fill:#869bb2;}.m{clip-path:url(#b);}.n,.p{fill:#434c6d;}.ad,.af,.n,.s,.y{stroke:#434c6d;}.n{stroke-width:2.81px;}.o{fill:#ced9ea;}.q{clip-path:url(#c);}.ae,.r,.y{fill:#afbbd0;}.ad,.s,.x,.y{stroke-width:3px;}.t{fill:#1ccdca;stroke:#44c4a1;}.u{fill:#ef4a36;}.u,.x{stroke:#df382c;}.v{stroke:#38b44a;}.w{fill:#df382c;}.z{clip-path:url(#d);}.aa{fill:#efb73e;}.ab{fill:#27a2db;}.ac{fill:#44c4a1;}.ae{stroke-width:1.02px;opacity:0.3;}.af{stroke-width:4px;}.ag{stroke-width:2.04px;}.ah{fill:gray;}.ai{fill:#c18e29;}</style><clipPath id="a"><circle class="a" cx="282.85" cy="282.85" r="197.95"/></clipPath><clipPath id="b"><rect class="a" x="227.17" y="342.89" width="84.33" height="39.35"/></clipPath><clipPath id="c"><path class="a" d="M433.17,138.58V320H105.5V138.58H433.17"/></clipPath><clipPath id="d"><rect class="a" x="497.24" y="302.41" width="19.6" height="51.46"/></clipPath></defs><title>p2</title><g class="b"><circle class="c" cx="282.85" cy="282.85" r="197.95"/><g class="d"><g class="e"><polygon class="f" points="446.15 0 119.54 565.69 0 119.54 446.15 0"/></g></g><circle class="c" cx="282.85" cy="282.85" r="197.95"/><path class="g" d="M231.61,91.64C126,119.94,63.34,228.48,91.64,334.08a197.36,197.36,0,0,0,92.23,120.2l198-342.86A197.32,197.32,0,0,0,231.61,91.64Z"/><path class="h" d="M510.91,333.25l-7.24,1.22V321.19l11.15-5.5-4.34-8.79-6.81,3.36V283H443.44V133.94h0a4.64,4.64,0,0,0-3.69-4.53,4.83,4.83,0,0,0-.94-.09H99.92a4.63,4.63,0,0,0-4.63,4.62h0v11.47l-1.76.31,1.76,10V361.56h0a4.63,4.63,0,0,0,4.63,4.62H231.36l-14.87,50.37h-8.05a9.35,9.35,0,1,0,0,18.7H330.29a9.35,9.35,0,1,0,0-18.7h-8l-14.87-50.37h78.11v70.2H495.6l8.07-11.72V344.41l8.87-1.49Z"/><path class="i" d="M102.68,420.14c.5-.5-.5-8.5,9-9s9,9,9,9"/><path class="j" d="M58.34,421.25c-4.73,1.12-9.46,3.37-9.46,7.87v3"/><path class="j" d="M165,421.25c4.73,1.12,9.47,3.37,9.47,7.87v3"/><rect class="k" x="57.69" y="407.88" width="44.99" height="27" rx="2.45" ry="2.45"/><rect class="k" x="120.68" y="407.88" width="44.99" height="27" rx="2.45" ry="2.45"/><polygon class="l" points="319.94 427.21 218.74 427.21 240.32 354.13 298.35 354.13 319.94 427.21"/><g class="m"><polygon class="n" points="319.94 427.21 218.74 427.21 240.32 354.13 298.35 354.13 319.94 427.21"/></g><rect class="o" x="204.06" y="422.3" width="130.56" height="8.7" rx="1.8" ry="1.8"/><path class="p" d="M298.35,354.13l20.13,68.17h11.78a4.35,4.35,0,1,1,0,8.7H208.41a4.35,4.35,0,1,1,0-8.7h11.78l20.13-68.17h58m3.74-5h-65.5l-1.06,3.58L216.46,417.3h-8.05a9.35,9.35,0,0,0,0,18.7H330.26a9.35,9.35,0,1,0,0-18.7h-8l-19.07-64.59-1.06-3.58Z"/><rect class="o" x="97.76" y="132.56" width="343.15" height="231.87" rx="2.13" ry="2.13"/><path class="p" d="M438.41,135.07V361.93H100.26V135.07H438.41m.37-5H99.89a4.63,4.63,0,0,0-4.63,4.62V362.3a4.63,4.63,0,0,0,4.63,4.63H438.78a4.63,4.63,0,0,0,4.63-4.63V134.69a4.62,4.62,0,0,0-4.63-4.62Z"/><path class="f" d="M97.84,331.38V134.69a2.05,2.05,0,0,1,2-2.05H438.78a2.05,2.05,0,0,1,2.06,2.05V331.38Z"/><path class="p" d="M438.27,135.21v193.6H100.41V135.21H438.27m.51-5.14H99.89a4.64,4.64,0,0,0-4.63,4.62V334H443.41V134.69a4.64,4.64,0,0,0-4.63-4.62Z"/><circle class="p" cx="269.34" cy="348.87" r="7.25"/><g class="q"><path class="r" d="M395.93,178.27V331.6h-138V178.27h138m3.29-3.29H254.63v159.9H399.22V175Z"/><rect class="r" x="139.46" y="174.98" width="120.08" height="159.9"/><line class="s" x1="300.75" y1="290.1" x2="374.71" y2="290.1"/><rect class="t" x="276.69" y="282.08" width="16.04" height="16.04"/><line class="s" x1="300.75" y1="263.59" x2="374.71" y2="263.59"/><rect class="o" x="276.69" y="255.57" width="16.04" height="16.04"/><line class="s" x1="300.75" y1="237.08" x2="374.71" y2="237.08"/><rect class="u" x="276.69" y="229.06" width="16.04" height="16.04"/><line class="s" x1="300.75" y1="210.57" x2="374.71" y2="210.57"/><rect class="v" x="276.69" y="202.55" width="16.04" height="16.04"/><rect class="w" x="162.25" y="218.89" width="82.58" height="68.08"/><rect class="f" x="163.75" y="261.68" width="79.58" height="24.53"/><path class="w" d="M241.83,263.18v21.53H165.25V263.18h76.58m3-3H162.25v27.53h82.58V260.18Z"/><line class="x" x1="173.81" y1="268.64" x2="173.81" y2="279.3"/><line class="x" x1="180.48" y1="268.64" x2="180.48" y2="279.3"/><line class="x" x1="193.26" y1="273.97" x2="233.27" y2="273.97"/><line class="x" x1="199.93" y1="268.64" x2="199.93" y2="279.3"/><path class="f" d="M192.74,231.62v14.87a3.58,3.58,0,0,0,5.18,3.2l14.86-7.43a3.58,3.58,0,0,0,0-6.4l-14.86-7.44A3.58,3.58,0,0,0,192.74,231.62Z"/></g><polygon class="y" points="399.22 285.26 502.14 285.26 502.14 424.94 494.78 435.63 386.96 435.63 386.96 291.86 399.22 285.26"/><g class="z"><rect class="aa" x="477.63" y="336.79" width="34.31" height="9.8" transform="translate(-49.95 87.08) rotate(-9.58)"/><rect class="w" x="480.08" y="314.73" width="34.31" height="9.8" transform="translate(-90.08 252.8) rotate(-26.24)"/></g><rect class="p" x="386.96" y="291.86" width="107.83" height="143.77"/><rect class="ab" x="423.89" y="356.71" width="7.49" height="29.94" transform="translate(-137.57 411.25) rotate(-45)"/><rect class="o" x="433.84" y="373.23" width="29.94" height="7.49" transform="translate(-135.11 427.77) rotate(-45)"/><rect class="w" x="450.36" y="340.83" width="7.49" height="29.94" transform="translate(-118.59 425.31) rotate(-45)"/><rect class="ac" x="417.96" y="346.77" width="29.94" height="7.49" transform="translate(-121.05 408.79) rotate(-45)"/><path class="s" d="M102.65,420.89c.5-.5-.5-8.5,9-9s9,9,9,9"/><path class="ad" d="M162.47,426.86l-94.69-6s-18.93,0-18.93,9v3"/><path class="ad" d="M60.82,426.86l94.69-6s18.94,0,18.94,9v3"/><rect class="ae" x="57.66" y="408.63" width="44.99" height="27" rx="2.45" ry="2.45"/><rect class="ae" x="120.65" y="408.63" width="44.99" height="27" rx="2.45" ry="2.45"/><rect class="af" x="57.66" y="408.63" width="44.99" height="27" rx="2.45" ry="2.45"/><rect class="af" x="120.65" y="408.63" width="44.99" height="27" rx="2.45" ry="2.45"/><line class="ag" x1="71.03" y1="426.63" x2="88.78" y2="417.88"/><line class="ag" x1="134.52" y1="426.63" x2="152.27" y2="417.88"/><polygon class="ah" points="93.5 146.47 155.15 135.6 170.92 202.15 129.82 209.4 105.65 192.47 93.5 146.47"/><polygon class="aa" points="93.5 146.47 155.15 135.6 166.02 197.25 124.92 204.5 100.75 187.57 93.5 146.47"/><path class="p" d="M108.32,154.71l9.76,36.2,15.41,1.56,14-6.75-3.21-37.36Zm31,6.9-17.24,3,1.2,4.56,16.47-2.9,1.17,14.14-8.73,4.15v0l-.1,0-9.71-.92-1.82-7,4.48-.79,1,3.52,5.26.47,4.8-2.24-.47-5.94L120,174.49l-3.61-13.44,22.61-4Z"/><polygon class="ai" points="100.75 187.57 124.92 204.5 121.3 183.95 100.75 187.57"/></g></svg>